<svg width="31" height="32" viewBox="0 0 31 32" fill="none" xmlns="http://www.w3.org/2000/svg">
<path d="M3.196 0C2.6031 0 2.0567 0.31213 1.7519 0.81908L0.23874 3.3454C-0.07958 3.8776 -0.07958 4.5434 0.23874 5.0757L1.7519 7.602C2.0567 8.1106 2.6031 8.4211 3.196 8.4211H6.4328C7.0257 8.4211 7.5753 8.1089 7.8802 7.602L9.3901 5.0757C9.7084 4.5434 9.7084 3.8793 9.3901 3.3454L7.8802 0.81908C7.5753 0.31213 7.0257 0 6.4328 0H3.196ZM24.3703 0C23.7775 0 23.2311 0.31213 22.9262 0.81908L21.4131 3.3454C21.0948 3.8776 21.0948 4.5418 21.4131 5.0757L22.9262 7.602C23.2311 8.1089 23.7792 8.4211 24.3703 8.4211H27.6072C28.2 8.4211 28.7464 8.1089 29.0512 7.602L30.5644 5.0757C30.8827 4.5434 30.8827 3.8776 30.5644 3.3454L29.0512 0.81908C28.7481 0.31045 28.2 0 27.6072 0H24.3703ZM13.7848 6.7368C13.1919 6.7368 12.6456 7.049 12.3407 7.5559L10.8276 10.0822C10.5092 10.6144 10.5092 11.2786 10.8276 11.8125L12.3407 14.3388C12.6456 14.8458 13.1919 15.1579 13.7848 15.1579H17.0216C17.6145 15.1579 18.1642 14.8458 18.469 14.3388L19.9789 11.8125C20.2972 11.2803 20.2972 10.6161 19.9789 10.0822L18.469 7.5559C18.1642 7.049 17.6145 6.7368 17.0216 6.7368H13.7848ZM3.196 11.7895C2.6031 11.7895 2.0567 12.1016 1.7519 12.6086L0.23874 15.1349C-0.07958 15.6671 -0.07958 16.3329 0.23874 16.8651L1.7519 19.3914C2.0567 19.9001 2.6031 20.2105 3.196 20.2105H6.4328C7.0257 20.2105 7.5753 19.8984 7.8802 19.3914L9.3901 16.8651C9.7084 16.3329 9.7084 15.6688 9.3901 15.1349L7.8802 12.6086C7.5753 12.1016 7.0257 11.7895 6.4328 11.7895H3.196ZM24.3703 11.7895C23.7775 11.7895 23.2311 12.1016 22.9262 12.6086L21.4131 15.1349C21.0948 15.6671 21.0948 16.3312 21.4131 16.8651L22.9262 19.3914C23.2311 19.8984 23.7792 20.2105 24.3703 20.2105H27.6072C28.2 20.2105 28.7464 19.8984 29.0512 19.3914L30.5644 16.8651C30.8827 16.3329 30.8827 15.6671 30.5644 15.1349L29.0512 12.6086C28.7481 12.0999 28.2 11.7895 27.6072 11.7895H24.3703ZM13.7848 18.5263C13.1919 18.5263 12.6456 18.8384 12.3407 19.3454L10.8276 21.8717C10.5092 22.4039 10.5092 23.0681 10.8276 23.602L12.3407 26.1283C12.6456 26.6352 13.1919 26.9474 13.7848 26.9474H17.0216C17.6145 26.9474 18.1642 26.6352 18.469 26.1283L19.9789 23.602C20.2972 23.0698 20.2972 22.4056 19.9789 21.8717L18.469 19.3454C18.1642 18.8384 17.6145 18.5263 17.0216 18.5263H13.7848ZM3.196 23.5789C2.6031 23.5789 2.0567 23.8911 1.7519 24.398L0.23874 26.9243C-0.07958 27.4566 -0.07958 28.1224 0.23874 28.6546L1.7519 31.1809C2.0567 31.6896 2.6031 32 3.196 32H6.4328C7.0257 32 7.5753 31.6879 7.8802 31.1809L9.3901 28.6546C9.7084 28.1224 9.7084 27.4582 9.3901 26.9243L7.8802 24.398C7.5753 23.8911 7.0257 23.5789 6.4328 23.5789H3.196ZM24.3703 23.5789C23.7775 23.5789 23.2311 23.8911 22.9262 24.398L21.4131 26.9243C21.0948 27.4566 21.0948 28.1207 21.4131 28.6546L22.9262 31.1809C23.2311 31.6879 23.7792 32 24.3703 32H27.6072C28.2 32 28.7464 31.6879 29.0512 31.1809L30.5644 28.6546C30.8827 28.1224 30.8827 27.4566 30.5644 26.9243L29.0512 24.398C28.7481 23.8894 28.2 23.5789 27.6072 23.5789H24.3703Z" fill="#EC407A"/>
</svg>
