<svg width="30" height="32" viewBox="0 0 30 32" fill="none" xmlns="http://www.w3.org/2000/svg">
<path d="M2.9091 0C1.3018 0 0 1.30182 0 2.9091V5.8182C0 6.6211 0.65164 7.2727 1.4545 7.2727H21.8182C22.6211 7.2727 23.2727 6.6211 23.2727 5.8182V2.9091C23.2727 1.30182 21.9709 0 20.3636 0H2.9091ZM1.4545 10.1818C0.65164 10.1818 0 10.8335 0 11.6364V17.4545C0 18.2575 0.65164 18.9091 1.4545 18.9091H13.4688C15.3088 16.2735 18.3593 14.5455 21.8182 14.5455C22.3127 14.5455 22.7971 14.5936 23.2727 14.6619V11.6364C23.2727 10.8335 22.6211 10.1818 21.8182 10.1818H1.4545ZM21.8182 17.4545C17.8022 17.4545 14.5455 20.7113 14.5455 24.7273C14.5455 28.7433 17.8022 32 21.8182 32C25.8342 32 29.0909 28.7433 29.0909 24.7273C29.0909 20.7113 25.8342 17.4545 21.8182 17.4545ZM1.4545 21.8182C0.65164 21.8182 0 22.4698 0 23.2727V26.1818C0 27.7891 1.3018 29.0909 2.9091 29.0909H12.6307C12.0009 27.7673 11.6364 26.2909 11.6364 24.7273C11.6364 23.7164 11.7904 22.7404 12.0653 21.8182H1.4545ZM18.9091 23.2727H24.7273C25.5302 23.2727 26.1818 23.9244 26.1818 24.7273C26.1818 25.5302 25.5302 26.1818 24.7273 26.1818H18.9091C18.1062 26.1818 17.4545 25.5302 17.4545 24.7273C17.4545 23.9244 18.1062 23.2727 18.9091 23.2727Z" fill="#EC407A"/>
</svg>
