<svg width="37" height="30" viewBox="0 0 37 30" fill="none" xmlns="http://www.w3.org/2000/svg">
<path d="M15 0C14.558 4e-05 14.1341 0.17565 13.8215 0.4882C13.509 0.80076 13.3334 1.2247 13.3333 1.6667V8.3333C13.3334 8.7753 13.509 9.1992 13.8215 9.5118C14.1341 9.8243 14.558 10 15 10H16.6667V13.3333H5C4.558 13.3334 4.1341 13.509 3.82154 13.8215C3.50899 14.1341 3.33338 14.558 3.33333 15V20H1.66667C1.22465 20 0.80076 20.1757 0.4882 20.4882C0.17565 20.8008 4e-05 21.2247 0 21.6667V28.3333C4e-05 28.7753 0.17565 29.1992 0.4882 29.5118C0.80076 29.8243 1.22465 30 1.66667 30H8.3333C8.7753 30 9.1992 29.8243 9.5118 29.5118C9.8243 29.1992 10 28.7753 10 28.3333V21.6667C10 21.2247 9.8243 20.8008 9.5118 20.4882C9.1992 20.1757 8.7753 20 8.3333 20H6.6667V16.6667H16.6667V20H15C14.558 20 14.1341 20.1757 13.8215 20.4882C13.509 20.8008 13.3334 21.2247 13.3333 21.6667V28.3333C13.3334 28.7753 13.509 29.1992 13.8215 29.5118C14.1341 29.8243 14.558 30 15 30H21.6667C22.1087 30 22.5326 29.8243 22.8451 29.5118C23.1577 29.1992 23.3333 28.7753 23.3333 28.3333V21.6667C23.3333 21.2247 23.1577 20.8008 22.8451 20.4882C22.5326 20.1757 22.1087 20 21.6667 20H20V16.6667H30V20H28.3333C27.8913 20 27.4674 20.1757 27.1549 20.4882C26.8423 20.8008 26.6667 21.2247 26.6667 21.6667V28.3333C26.6667 28.7753 26.8423 29.1992 27.1549 29.5118C27.4674 29.8243 27.8913 30 28.3333 30H35C35.442 30 35.8659 29.8243 36.1785 29.5118C36.491 29.1992 36.6666 28.7753 36.6667 28.3333V21.6667C36.6666 21.2247 36.491 20.8008 36.1785 20.4882C35.8659 20.1757 35.442 20 35 20H33.3333V15C33.3333 14.558 33.1577 14.1341 32.8451 13.8215C32.5326 13.509 32.1087 13.3334 31.6667 13.3333H20V10H21.6667C22.1087 10 22.5326 9.8243 22.8451 9.5118C23.1577 9.1992 23.3333 8.7753 23.3333 8.3333V1.6667C23.3333 1.2247 23.1577 0.80076 22.8451 0.4882C22.5326 0.17565 22.1087 4e-05 21.6667 0H15Z" fill="#EC407A"/>
</svg>
