<svg width="32" height="26" viewBox="0 0 32 26" fill="none" xmlns="http://www.w3.org/2000/svg">
<path d="M4.1905 0C1.87962 0 0 1.8804 0 4.1905V21.7143C0 24.0244 1.87962 25.9048 4.1905 25.9048H14.8571V0H4.1905ZM17.1429 0V25.9048H27.8095C30.1204 25.9048 32 24.0244 32 21.7143V4.1905C32 1.8804 30.1204 0 27.8095 0H17.1429ZM24.381 6.8571C26.4815 6.8571 28.1905 8.5661 28.1905 10.6667V15.2381C28.1905 17.3387 26.4815 19.0476 24.381 19.0476C22.2804 19.0476 20.5714 17.3387 20.5714 15.2381V10.6667C20.5714 8.5661 22.2804 6.8571 24.381 6.8571ZM7.5238 6.8616C7.7923 6.839 8.0632 6.9118 8.2872 7.0729C8.5851 7.2878 8.7619 7.6328 8.7619 8V17.9048C8.7619 18.5364 8.2507 19.0476 7.619 19.0476C6.9874 19.0476 6.4762 18.5364 6.4762 17.9048V9.5848L5.6949 9.8467C5.0976 10.0486 4.4481 9.7224 4.2485 9.1235C4.0489 8.5247 4.3729 7.8767 4.9717 7.6771L7.2574 6.9152C7.3445 6.886 7.4343 6.8691 7.5238 6.8616ZM24.381 9.1429C23.5406 9.1429 22.8571 9.8263 22.8571 10.6667V15.2381C22.8571 16.0785 23.5406 16.7619 24.381 16.7619C25.2213 16.7619 25.9048 16.0785 25.9048 15.2381V10.6667C25.9048 9.8263 25.2213 9.1429 24.381 9.1429Z" fill="#EC407A"/>
</svg>
