<svg width="158" height="20" viewBox="0 0 158 20" fill="none" xmlns="http://www.w3.org/2000/svg">
<path d="M3.64844 0.78125L7.75 11.6797L11.8418 0.78125H15.0352V15H12.5742V10.3125L12.8184 4.04297L8.61914 15H6.85156L2.66211 4.05273L2.90625 10.3125V15H0.445312V0.78125H3.64844ZM24.0488 15C23.9447 14.7982 23.8535 14.4694 23.7754 14.0137C23.0202 14.8014 22.0957 15.1953 21.002 15.1953C19.9408 15.1953 19.0749 14.8926 18.4043 14.2871C17.7337 13.6816 17.3984 12.9329 17.3984 12.041C17.3984 10.9147 17.8151 10.0521 18.6484 9.45312C19.4883 8.84766 20.6862 8.54492 22.2422 8.54492H23.6973V7.85156C23.6973 7.30469 23.5443 6.86849 23.2383 6.54297C22.9323 6.21094 22.4668 6.04492 21.8418 6.04492C21.3014 6.04492 20.8587 6.18164 20.5137 6.45508C20.1686 6.72201 19.9961 7.0638 19.9961 7.48047H17.623C17.623 6.90104 17.8151 6.36068 18.1992 5.85938C18.5833 5.35156 19.1042 4.95443 19.7617 4.66797C20.4258 4.38151 21.1647 4.23828 21.9785 4.23828C23.2155 4.23828 24.2018 4.55078 24.9375 5.17578C25.6732 5.79427 26.0508 6.66667 26.0703 7.79297V12.5586C26.0703 13.5091 26.2038 14.2676 26.4707 14.834V15H24.0488ZM21.4414 13.291C21.9102 13.291 22.3496 13.1771 22.7598 12.9492C23.1764 12.7214 23.4889 12.4154 23.6973 12.0312V10.0391H22.418C21.5391 10.0391 20.8783 10.1921 20.4355 10.498C19.9928 10.804 19.7715 11.237 19.7715 11.7969C19.7715 12.2526 19.9212 12.6172 20.2207 12.8906C20.5267 13.1576 20.9336 13.291 21.4414 13.291ZM32.8965 13.3008C33.4889 13.3008 33.9805 13.1283 34.3711 12.7832C34.7617 12.4382 34.9701 12.0117 34.9961 11.5039H37.2324C37.2064 12.1615 37.0013 12.7767 36.6172 13.3496C36.2331 13.916 35.7122 14.3652 35.0547 14.6973C34.3971 15.0293 33.6875 15.1953 32.9258 15.1953C31.4479 15.1953 30.276 14.7168 29.4102 13.7598C28.5443 12.8027 28.1113 11.4811 28.1113 9.79492V9.55078C28.1113 7.94271 28.541 6.6569 29.4004 5.69336C30.2598 4.72331 31.4316 4.23828 32.916 4.23828C34.1725 4.23828 35.1947 4.60612 35.9824 5.3418C36.7767 6.07096 37.1934 7.03125 37.2324 8.22266H34.9961C34.9701 7.61719 34.7617 7.11914 34.3711 6.72852C33.987 6.33789 33.4954 6.14258 32.8965 6.14258C32.1283 6.14258 31.5358 6.42253 31.1191 6.98242C30.7025 7.53581 30.4909 8.37891 30.4844 9.51172V9.89258C30.4844 11.0384 30.6895 11.8945 31.0996 12.4609C31.5163 13.0208 32.1152 13.3008 32.8965 13.3008ZM41.3633 5.58594C42.138 4.6875 43.1178 4.23828 44.3027 4.23828C46.5553 4.23828 47.6979 5.52409 47.7305 8.0957V15H45.3574V8.18359C45.3574 7.45443 45.1979 6.9401 44.8789 6.64062C44.5664 6.33464 44.1042 6.18164 43.4922 6.18164C42.5417 6.18164 41.832 6.60482 41.3633 7.45117V15H38.9902V0H41.3633V5.58594ZM52.6621 15H50.2891V4.43359H52.6621V15ZM50.1426 1.68945C50.1426 1.32487 50.2565 1.02214 50.4844 0.78125C50.7188 0.540365 51.0508 0.419922 51.4805 0.419922C51.9102 0.419922 52.2422 0.540365 52.4766 0.78125C52.7109 1.02214 52.8281 1.32487 52.8281 1.68945C52.8281 2.04753 52.7109 2.34701 52.4766 2.58789C52.2422 2.82227 51.9102 2.93945 51.4805 2.93945C51.0508 2.93945 50.7188 2.82227 50.4844 2.58789C50.2565 2.34701 50.1426 2.04753 50.1426 1.68945ZM57.457 4.43359L57.5254 5.6543C58.3066 4.71029 59.332 4.23828 60.6016 4.23828C62.8021 4.23828 63.9219 5.49805 63.9609 8.01758V15H61.5879V8.1543C61.5879 7.48372 61.4414 6.98893 61.1484 6.66992C60.862 6.3444 60.39 6.18164 59.7324 6.18164C58.7754 6.18164 58.0625 6.61458 57.5938 7.48047V15H55.2207V4.43359H57.457ZM71.041 15.1953C69.5371 15.1953 68.3164 14.7233 67.3789 13.7793C66.4479 12.8288 65.9824 11.5658 65.9824 9.99023V9.69727C65.9824 8.64258 66.1842 7.70182 66.5879 6.875C66.998 6.04167 67.571 5.39388 68.3066 4.93164C69.0423 4.4694 69.8626 4.23828 70.7676 4.23828C72.2064 4.23828 73.3164 4.69727 74.0977 5.61523C74.8854 6.5332 75.2793 7.83203 75.2793 9.51172V10.4688H68.375C68.4466 11.3411 68.7363 12.0312 69.2441 12.5391C69.7585 13.0469 70.403 13.3008 71.1777 13.3008C72.265 13.3008 73.1504 12.8613 73.834 11.9824L75.1133 13.2031C74.6901 13.8346 74.1237 14.3262 73.4141 14.6777C72.7109 15.0228 71.9199 15.1953 71.041 15.1953ZM70.7578 6.14258C70.1068 6.14258 69.5794 6.37044 69.1758 6.82617C68.7786 7.2819 68.5247 7.91667 68.4141 8.73047H72.9355V8.55469C72.8835 7.76042 72.6719 7.16146 72.3008 6.75781C71.9297 6.34766 71.4154 6.14258 70.7578 6.14258ZM84.8105 13.0273H91.2656V15H82.3398V0.78125H84.8105V13.0273ZM97.584 15.1953C96.0801 15.1953 94.8594 14.7233 93.9219 13.7793C92.9909 12.8288 92.5254 11.5658 92.5254 9.99023V9.69727C92.5254 8.64258 92.7272 7.70182 93.1309 6.875C93.541 6.04167 94.1139 5.39388 94.8496 4.93164C95.5853 4.4694 96.4056 4.23828 97.3105 4.23828C98.7493 4.23828 99.8594 4.69727 100.641 5.61523C101.428 6.5332 101.822 7.83203 101.822 9.51172V10.4688H94.918C94.9896 11.3411 95.2793 12.0312 95.7871 12.5391C96.3014 13.0469 96.946 13.3008 97.7207 13.3008C98.8079 13.3008 99.6934 12.8613 100.377 11.9824L101.656 13.2031C101.233 13.8346 100.667 14.3262 99.957 14.6777C99.2539 15.0228 98.4629 15.1953 97.584 15.1953ZM97.3008 6.14258C96.6497 6.14258 96.1224 6.37044 95.7188 6.82617C95.3216 7.2819 95.0677 7.91667 94.957 8.73047H99.4785V8.55469C99.4264 7.76042 99.2148 7.16146 98.8438 6.75781C98.4727 6.34766 97.9583 6.14258 97.3008 6.14258ZM109.986 15C109.882 14.7982 109.791 14.4694 109.713 14.0137C108.958 14.8014 108.033 15.1953 106.939 15.1953C105.878 15.1953 105.012 14.8926 104.342 14.2871C103.671 13.6816 103.336 12.9329 103.336 12.041C103.336 10.9147 103.753 10.0521 104.586 9.45312C105.426 8.84766 106.624 8.54492 108.18 8.54492H109.635V7.85156C109.635 7.30469 109.482 6.86849 109.176 6.54297C108.87 6.21094 108.404 6.04492 107.779 6.04492C107.239 6.04492 106.796 6.18164 106.451 6.45508C106.106 6.72201 105.934 7.0638 105.934 7.48047H103.561C103.561 6.90104 103.753 6.36068 104.137 5.85938C104.521 5.35156 105.042 4.95443 105.699 4.66797C106.363 4.38151 107.102 4.23828 107.916 4.23828C109.153 4.23828 110.139 4.55078 110.875 5.17578C111.611 5.79427 111.988 6.66667 112.008 7.79297V12.5586C112.008 13.5091 112.141 14.2676 112.408 14.834V15H109.986ZM107.379 13.291C107.848 13.291 108.287 13.1771 108.697 12.9492C109.114 12.7214 109.426 12.4154 109.635 12.0312V10.0391H108.355C107.477 10.0391 106.816 10.1921 106.373 10.498C105.93 10.804 105.709 11.237 105.709 11.7969C105.709 12.2526 105.859 12.6172 106.158 12.8906C106.464 13.1576 106.871 13.291 107.379 13.291ZM120.025 6.60156C119.713 6.54948 119.391 6.52344 119.059 6.52344C117.971 6.52344 117.239 6.9401 116.861 7.77344V15H114.488V4.43359H116.754L116.812 5.61523C117.385 4.69727 118.18 4.23828 119.195 4.23828C119.534 4.23828 119.814 4.28385 120.035 4.375L120.025 6.60156ZM123.727 4.43359L123.795 5.6543C124.576 4.71029 125.602 4.23828 126.871 4.23828C129.072 4.23828 130.191 5.49805 130.23 8.01758V15H127.857V8.1543C127.857 7.48372 127.711 6.98893 127.418 6.66992C127.132 6.3444 126.66 6.18164 126.002 6.18164C125.045 6.18164 124.332 6.61458 123.863 7.48047V15H121.49V4.43359H123.727ZM135.182 15H132.809V4.43359H135.182V15ZM132.662 1.68945C132.662 1.32487 132.776 1.02214 133.004 0.78125C133.238 0.540365 133.57 0.419922 134 0.419922C134.43 0.419922 134.762 0.540365 134.996 0.78125C135.23 1.02214 135.348 1.32487 135.348 1.68945C135.348 2.04753 135.23 2.34701 134.996 2.58789C134.762 2.82227 134.43 2.93945 134 2.93945C133.57 2.93945 133.238 2.82227 133.004 2.58789C132.776 2.34701 132.662 2.04753 132.662 1.68945ZM139.977 4.43359L140.045 5.6543C140.826 4.71029 141.852 4.23828 143.121 4.23828C145.322 4.23828 146.441 5.49805 146.48 8.01758V15H144.107V8.1543C144.107 7.48372 143.961 6.98893 143.668 6.66992C143.382 6.3444 142.91 6.18164 142.252 6.18164C141.295 6.18164 140.582 6.61458 140.113 7.48047V15H137.74V4.43359H139.977ZM148.492 9.63867C148.492 7.99805 148.876 6.68945 149.645 5.71289C150.419 4.72982 151.445 4.23828 152.721 4.23828C153.925 4.23828 154.872 4.6582 155.562 5.49805L155.67 4.43359H157.809V14.6777C157.809 16.0645 157.376 17.1582 156.51 17.959C155.65 18.7598 154.488 19.1602 153.023 19.1602C152.249 19.1602 151.49 18.9974 150.748 18.6719C150.012 18.3529 149.452 17.9329 149.068 17.4121L150.191 15.9863C150.921 16.8522 151.819 17.2852 152.887 17.2852C153.674 17.2852 154.296 17.0703 154.752 16.6406C155.208 16.2174 155.436 15.5924 155.436 14.7656V14.0527C154.752 14.8145 153.84 15.1953 152.701 15.1953C151.464 15.1953 150.452 14.7038 149.664 13.7207C148.883 12.7376 148.492 11.377 148.492 9.63867ZM150.855 9.84375C150.855 10.9049 151.07 11.7415 151.5 12.3535C151.936 12.959 152.538 13.2617 153.307 13.2617C154.264 13.2617 154.973 12.8516 155.436 12.0312V7.38281C154.986 6.58203 154.283 6.18164 153.326 6.18164C152.545 6.18164 151.936 6.49089 151.5 7.10938C151.07 7.72786 150.855 8.63932 150.855 9.84375Z" fill="#494747"/>
</svg>
