<svg width="146" height="35" viewBox="0 0 146 35" fill="none" xmlns="http://www.w3.org/2000/svg">
<path d="M11.7422 20.6543L17.543 1.40625H23.4141L14.502 27H9L0.123047 1.40625H5.97656L11.7422 20.6543ZM30.8672 27H25.7695V7.98047H30.8672V27ZM25.4707 3.05859C25.4707 2.29688 25.7227 1.66992 26.2266 1.17773C26.7422 0.685547 27.4395 0.439453 28.3184 0.439453C29.1855 0.439453 29.877 0.685547 30.3926 1.17773C30.9082 1.66992 31.166 2.29688 31.166 3.05859C31.166 3.83203 30.9023 4.46484 30.375 4.95703C29.8594 5.44922 29.1738 5.69531 28.3184 5.69531C27.4629 5.69531 26.7715 5.44922 26.2441 4.95703C25.7285 4.46484 25.4707 3.83203 25.4707 3.05859ZM34.2773 17.3496C34.2773 14.3848 34.9395 12.0234 36.2637 10.2656C37.5996 8.50781 39.4219 7.62891 41.7305 7.62891C43.582 7.62891 45.1113 8.32031 46.3184 9.70312V0H51.416V27H46.8281L46.582 24.9785C45.3164 26.5605 43.6875 27.3516 41.6953 27.3516C39.457 27.3516 37.6582 26.4727 36.2988 24.7148C34.9512 22.9453 34.2773 20.4902 34.2773 17.3496ZM39.3574 17.7188C39.3574 19.5 39.668 20.8652 40.2891 21.8145C40.9102 22.7637 41.8125 23.2383 42.9961 23.2383C44.5664 23.2383 45.6738 22.5762 46.3184 21.252V13.7461C45.6855 12.4219 44.5898 11.7598 43.0312 11.7598C40.582 11.7598 39.3574 13.7461 39.3574 17.7188ZM62.4551 19.8105L65.9707 7.98047H71.4199L63.7734 29.9531L63.3516 30.9551C62.2148 33.4395 60.3398 34.6816 57.7266 34.6816C56.9883 34.6816 56.2383 34.5703 55.4766 34.3477V30.498L56.25 30.5156C57.2109 30.5156 57.9258 30.3691 58.3945 30.0762C58.875 29.7832 59.25 29.2969 59.5195 28.6172L60.1172 27.0527L53.4551 7.98047H58.9219L62.4551 19.8105ZM84.1641 27C83.9297 26.543 83.7598 25.9746 83.6543 25.2949C82.4238 26.666 80.8242 27.3516 78.8555 27.3516C76.9922 27.3516 75.4453 26.8125 74.2148 25.7344C72.9961 24.6562 72.3867 23.2969 72.3867 21.6562C72.3867 19.6406 73.1309 18.0938 74.6191 17.0156C76.1191 15.9375 78.2812 15.3926 81.1055 15.3809H83.4434V14.291C83.4434 13.4121 83.2148 12.709 82.7578 12.1816C82.3125 11.6543 81.6035 11.3906 80.6309 11.3906C79.7754 11.3906 79.1016 11.5957 78.6094 12.0059C78.1289 12.416 77.8887 12.9785 77.8887 13.6934H72.8086C72.8086 12.5918 73.1484 11.5723 73.8281 10.6348C74.5078 9.69727 75.4688 8.96484 76.7109 8.4375C77.9531 7.89844 79.3477 7.62891 80.8945 7.62891C83.2383 7.62891 85.0957 8.2207 86.4668 9.4043C87.8496 10.5762 88.541 12.2285 88.541 14.3613V22.6055C88.5527 24.4102 88.8047 25.7754 89.2969 26.7012V27H84.1641ZM79.9629 23.4668C80.7129 23.4668 81.4043 23.3027 82.0371 22.9746C82.6699 22.6348 83.1387 22.1836 83.4434 21.6211V18.3516H81.5449C79.002 18.3516 77.6484 19.2305 77.4844 20.9883L77.4668 21.2871C77.4668 21.9199 77.6895 22.4414 78.1348 22.8516C78.5801 23.2617 79.1895 23.4668 79.9629 23.4668ZM99.2637 19.8105L102.779 7.98047H108.229L100.582 29.9531L100.16 30.9551C99.0234 33.4395 97.1484 34.6816 94.5352 34.6816C93.7969 34.6816 93.0469 34.5703 92.2852 34.3477V30.498L93.0586 30.5156C94.0195 30.5156 94.7344 30.3691 95.2031 30.0762C95.6836 29.7832 96.0586 29.2969 96.3281 28.6172L96.9258 27.0527L90.2637 7.98047H95.7305L99.2637 19.8105ZM120.973 27C120.738 26.543 120.568 25.9746 120.463 25.2949C119.232 26.666 117.633 27.3516 115.664 27.3516C113.801 27.3516 112.254 26.8125 111.023 25.7344C109.805 24.6562 109.195 23.2969 109.195 21.6562C109.195 19.6406 109.939 18.0938 111.428 17.0156C112.928 15.9375 115.09 15.3926 117.914 15.3809H120.252V14.291C120.252 13.4121 120.023 12.709 119.566 12.1816C119.121 11.6543 118.412 11.3906 117.439 11.3906C116.584 11.3906 115.91 11.5957 115.418 12.0059C114.938 12.416 114.697 12.9785 114.697 13.6934H109.617C109.617 12.5918 109.957 11.5723 110.637 10.6348C111.316 9.69727 112.277 8.96484 113.52 8.4375C114.762 7.89844 116.156 7.62891 117.703 7.62891C120.047 7.62891 121.904 8.2207 123.275 9.4043C124.658 10.5762 125.35 12.2285 125.35 14.3613V22.6055C125.361 24.4102 125.613 25.7754 126.105 26.7012V27H120.973ZM116.771 23.4668C117.521 23.4668 118.213 23.3027 118.846 22.9746C119.479 22.6348 119.947 22.1836 120.252 21.6211V18.3516H118.354C115.811 18.3516 114.457 19.2305 114.293 20.9883L114.275 21.2871C114.275 21.9199 114.498 22.4414 114.943 22.8516C115.389 23.2617 115.998 23.4668 116.771 23.4668ZM133.928 7.98047L134.086 10.1777C135.445 8.47852 137.268 7.62891 139.553 7.62891C141.568 7.62891 143.068 8.2207 144.053 9.4043C145.037 10.5879 145.541 12.3574 145.564 14.7129V27H140.484V14.8359C140.484 13.7578 140.25 12.9785 139.781 12.498C139.312 12.0059 138.533 11.7598 137.443 11.7598C136.014 11.7598 134.941 12.3691 134.227 13.5879V27H129.146V7.98047H133.928Z" fill="#FFFBFB"/>
</svg>
