<svg width="158" height="20" viewBox="0 0 158 20" fill="none" xmlns="http://www.w3.org/2000/svg">
<path d="M9.4043 11.6895H3.89648L2.74414 15H0.175781L5.54688 0.78125H7.76367L13.1445 15H10.5664L9.4043 11.6895ZM4.58984 9.69727H8.71094L6.65039 3.79883L4.58984 9.69727ZM23.3203 9.82422C23.3203 11.4583 22.9492 12.7637 22.207 13.7402C21.4648 14.7103 20.4688 15.1953 19.2188 15.1953C18.0599 15.1953 17.1322 14.8145 16.4355 14.0527V19.0625H14.0625V4.43359H16.25L16.3477 5.50781C17.0443 4.66146 17.9915 4.23828 19.1895 4.23828C20.4785 4.23828 21.4876 4.72005 22.2168 5.68359C22.9525 6.64062 23.3203 7.97201 23.3203 9.67773V9.82422ZM20.957 9.61914C20.957 8.56445 20.7454 7.72786 20.3223 7.10938C19.9056 6.49089 19.3066 6.18164 18.5254 6.18164C17.5553 6.18164 16.8587 6.58203 16.4355 7.38281V12.0703C16.8652 12.8906 17.5684 13.3008 18.5449 13.3008C19.3001 13.3008 19.8893 12.998 20.3125 12.3926C20.7422 11.7806 20.957 10.8561 20.957 9.61914ZM34.5898 9.82422C34.5898 11.4583 34.2188 12.7637 33.4766 13.7402C32.7344 14.7103 31.7383 15.1953 30.4883 15.1953C29.3294 15.1953 28.4017 14.8145 27.7051 14.0527V19.0625H25.332V4.43359H27.5195L27.6172 5.50781C28.3138 4.66146 29.2611 4.23828 30.459 4.23828C31.748 4.23828 32.7572 4.72005 33.4863 5.68359C34.222 6.64062 34.5898 7.97201 34.5898 9.67773V9.82422ZM32.2266 9.61914C32.2266 8.56445 32.015 7.72786 31.5918 7.10938C31.1751 6.49089 30.5762 6.18164 29.7949 6.18164C28.8249 6.18164 28.1283 6.58203 27.7051 7.38281V12.0703C28.1348 12.8906 28.8379 13.3008 29.8145 13.3008C30.5697 13.3008 31.1589 12.998 31.582 12.3926C32.0117 11.7806 32.2266 10.8561 32.2266 9.61914ZM41.8164 15V0.78125H46.0156C47.2721 0.78125 48.3854 1.0612 49.3555 1.62109C50.332 2.18099 51.0872 2.97526 51.6211 4.00391C52.1549 5.03255 52.4219 6.21094 52.4219 7.53906V8.25195C52.4219 9.59961 52.1517 10.7845 51.6113 11.8066C51.0775 12.8288 50.3125 13.6165 49.3164 14.1699C48.3268 14.7233 47.1908 15 45.9082 15H41.8164ZM44.2871 2.77344V13.0273H45.8984C47.194 13.0273 48.1868 12.6237 48.877 11.8164C49.5736 11.0026 49.9284 9.83724 49.9414 8.32031V7.5293C49.9414 5.98633 49.6061 4.80794 48.9355 3.99414C48.265 3.18034 47.2917 2.77344 46.0156 2.77344H44.2871ZM59.3066 15.1953C57.8027 15.1953 56.582 14.7233 55.6445 13.7793C54.7135 12.8288 54.248 11.5658 54.248 9.99023V9.69727C54.248 8.64258 54.4499 7.70182 54.8535 6.875C55.2637 6.04167 55.8366 5.39388 56.5723 4.93164C57.3079 4.4694 58.1283 4.23828 59.0332 4.23828C60.472 4.23828 61.582 4.69727 62.3633 5.61523C63.151 6.5332 63.5449 7.83203 63.5449 9.51172V10.4688H56.6406C56.7122 11.3411 57.002 12.0312 57.5098 12.5391C58.0241 13.0469 58.6686 13.3008 59.4434 13.3008C60.5306 13.3008 61.416 12.8613 62.0996 11.9824L63.3789 13.2031C62.9557 13.8346 62.3893 14.3262 61.6797 14.6777C60.9766 15.0228 60.1855 15.1953 59.3066 15.1953ZM59.0234 6.14258C58.3724 6.14258 57.8451 6.37044 57.4414 6.82617C57.0443 7.2819 56.7904 7.91667 56.6797 8.73047H61.2012V8.55469C61.1491 7.76042 60.9375 7.16146 60.5664 6.75781C60.1953 6.34766 59.681 6.14258 59.0234 6.14258ZM68.9844 11.9922L71.2207 4.43359H73.6719L70.0098 15H67.9492L64.2578 4.43359H66.7188L68.9844 11.9922ZM79.6777 15.1953C78.1738 15.1953 76.9531 14.7233 76.0156 13.7793C75.0846 12.8288 74.6191 11.5658 74.6191 9.99023V9.69727C74.6191 8.64258 74.821 7.70182 75.2246 6.875C75.6348 6.04167 76.2077 5.39388 76.9434 4.93164C77.679 4.4694 78.4993 4.23828 79.4043 4.23828C80.8431 4.23828 81.9531 4.69727 82.7344 5.61523C83.5221 6.5332 83.916 7.83203 83.916 9.51172V10.4688H77.0117C77.0833 11.3411 77.373 12.0312 77.8809 12.5391C78.3952 13.0469 79.0397 13.3008 79.8145 13.3008C80.9017 13.3008 81.7871 12.8613 82.4707 11.9824L83.75 13.2031C83.3268 13.8346 82.7604 14.3262 82.0508 14.6777C81.3477 15.0228 80.5566 15.1953 79.6777 15.1953ZM79.3945 6.14258C78.7435 6.14258 78.2161 6.37044 77.8125 6.82617C77.4154 7.2819 77.1615 7.91667 77.0508 8.73047H81.5723V8.55469C81.5202 7.76042 81.3086 7.16146 80.9375 6.75781C80.5664 6.34766 80.0521 6.14258 79.3945 6.14258ZM88.291 15H85.918V0H88.291V15ZM90.4395 9.61914C90.4395 8.58398 90.6445 7.65299 91.0547 6.82617C91.4648 5.99284 92.041 5.35482 92.7832 4.91211C93.5254 4.46289 94.3783 4.23828 95.3418 4.23828C96.7676 4.23828 97.9232 4.69727 98.8086 5.61523C99.7005 6.5332 100.182 7.75065 100.254 9.26758L100.264 9.82422C100.264 10.8659 100.062 11.7969 99.6582 12.6172C99.2611 13.4375 98.6882 14.0723 97.9395 14.5215C97.1973 14.9707 96.3379 15.1953 95.3613 15.1953C93.8704 15.1953 92.6758 14.7005 91.7773 13.7109C90.8854 12.7148 90.4395 11.39 90.4395 9.73633V9.61914ZM92.8125 9.82422C92.8125 10.9115 93.0371 11.7643 93.4863 12.3828C93.9355 12.9948 94.5605 13.3008 95.3613 13.3008C96.1621 13.3008 96.7839 12.9883 97.2266 12.3633C97.6758 11.7383 97.9004 10.8236 97.9004 9.61914C97.9004 8.55143 97.6693 7.70508 97.207 7.08008C96.7513 6.45508 96.1296 6.14258 95.3418 6.14258C94.5671 6.14258 93.9518 6.45182 93.4961 7.07031C93.0404 7.68229 92.8125 8.60026 92.8125 9.82422ZM111.523 9.82422C111.523 11.4583 111.152 12.7637 110.41 13.7402C109.668 14.7103 108.672 15.1953 107.422 15.1953C106.263 15.1953 105.335 14.8145 104.639 14.0527V19.0625H102.266V4.43359H104.453L104.551 5.50781C105.247 4.66146 106.195 4.23828 107.393 4.23828C108.682 4.23828 109.691 4.72005 110.42 5.68359C111.156 6.64062 111.523 7.97201 111.523 9.67773V9.82422ZM109.16 9.61914C109.16 8.56445 108.949 7.72786 108.525 7.10938C108.109 6.49089 107.51 6.18164 106.729 6.18164C105.758 6.18164 105.062 6.58203 104.639 7.38281V12.0703C105.068 12.8906 105.771 13.3008 106.748 13.3008C107.503 13.3008 108.092 12.998 108.516 12.3926C108.945 11.7806 109.16 10.8561 109.16 9.61914ZM115.771 4.43359L115.84 5.53711C116.582 4.67122 117.598 4.23828 118.887 4.23828C120.299 4.23828 121.266 4.77865 121.787 5.85938C122.555 4.77865 123.636 4.23828 125.029 4.23828C126.195 4.23828 127.061 4.56055 127.627 5.20508C128.2 5.84961 128.493 6.80013 128.506 8.05664V15H126.133V8.125C126.133 7.45443 125.986 6.96289 125.693 6.65039C125.4 6.33789 124.915 6.18164 124.238 6.18164C123.698 6.18164 123.255 6.32812 122.91 6.62109C122.572 6.90755 122.334 7.28516 122.197 7.75391L122.207 15H119.834V8.04688C119.801 6.80339 119.167 6.18164 117.93 6.18164C116.979 6.18164 116.305 6.56901 115.908 7.34375V15H113.535V4.43359H115.771ZM135.596 15.1953C134.092 15.1953 132.871 14.7233 131.934 13.7793C131.003 12.8288 130.537 11.5658 130.537 9.99023V9.69727C130.537 8.64258 130.739 7.70182 131.143 6.875C131.553 6.04167 132.126 5.39388 132.861 4.93164C133.597 4.4694 134.417 4.23828 135.322 4.23828C136.761 4.23828 137.871 4.69727 138.652 5.61523C139.44 6.5332 139.834 7.83203 139.834 9.51172V10.4688H132.93C133.001 11.3411 133.291 12.0312 133.799 12.5391C134.313 13.0469 134.958 13.3008 135.732 13.3008C136.82 13.3008 137.705 12.8613 138.389 11.9824L139.668 13.2031C139.245 13.8346 138.678 14.3262 137.969 14.6777C137.266 15.0228 136.475 15.1953 135.596 15.1953ZM135.312 6.14258C134.661 6.14258 134.134 6.37044 133.73 6.82617C133.333 7.2819 133.079 7.91667 132.969 8.73047H137.49V8.55469C137.438 7.76042 137.227 7.16146 136.855 6.75781C136.484 6.34766 135.97 6.14258 135.312 6.14258ZM143.887 4.43359L143.955 5.6543C144.736 4.71029 145.762 4.23828 147.031 4.23828C149.232 4.23828 150.352 5.49805 150.391 8.01758V15H148.018V8.1543C148.018 7.48372 147.871 6.98893 147.578 6.66992C147.292 6.3444 146.82 6.18164 146.162 6.18164C145.205 6.18164 144.492 6.61458 144.023 7.48047V15H141.65V4.43359H143.887ZM155.791 1.86523V4.43359H157.656V6.19141H155.791V12.0898C155.791 12.4935 155.869 12.7865 156.025 12.9688C156.188 13.1445 156.475 13.2324 156.885 13.2324C157.158 13.2324 157.435 13.1999 157.715 13.1348V14.9707C157.174 15.1204 156.654 15.1953 156.152 15.1953C154.329 15.1953 153.418 14.1895 153.418 12.1777V6.19141H151.68V4.43359H153.418V1.86523H155.791Z" fill="#494747"/>
</svg>
