<svg width="185" height="21" viewBox="0 0 185 21" fill="none" xmlns="http://www.w3.org/2000/svg">
<path d="M9.4043 12.6895H3.89648L2.74414 16H0.175781L5.54688 1.78125H7.76367L13.1445 16H10.5664L9.4043 12.6895ZM4.58984 10.6973H8.71094L6.65039 4.79883L4.58984 10.6973ZM20.0684 7.60156C19.7559 7.54948 19.4336 7.52344 19.1016 7.52344C18.0143 7.52344 17.2819 7.9401 16.9043 8.77344V16H14.5312V5.43359H16.7969L16.8555 6.61523C17.4284 5.69727 18.2227 5.23828 19.2383 5.23828C19.5768 5.23828 19.8568 5.28385 20.0781 5.375L20.0684 7.60156ZM25.0293 2.86523V5.43359H26.8945V7.19141H25.0293V13.0898C25.0293 13.4935 25.1074 13.7865 25.2637 13.9688C25.4264 14.1445 25.7129 14.2324 26.123 14.2324C26.3965 14.2324 26.6732 14.1999 26.9531 14.1348V15.9707C26.4128 16.1204 25.8919 16.1953 25.3906 16.1953C23.5677 16.1953 22.6562 15.1895 22.6562 13.1777V7.19141H20.918V5.43359H22.6562V2.86523H25.0293ZM31.2402 16H28.8672V5.43359H31.2402V16ZM28.7207 2.68945C28.7207 2.32487 28.8346 2.02214 29.0625 1.78125C29.2969 1.54036 29.6289 1.41992 30.0586 1.41992C30.4883 1.41992 30.8203 1.54036 31.0547 1.78125C31.2891 2.02214 31.4062 2.32487 31.4062 2.68945C31.4062 3.04753 31.2891 3.34701 31.0547 3.58789C30.8203 3.82227 30.4883 3.93945 30.0586 3.93945C29.6289 3.93945 29.2969 3.82227 29.0625 3.58789C28.8346 3.34701 28.7207 3.04753 28.7207 2.68945ZM34.4629 16V7.19141H32.8516V5.43359H34.4629V4.71094C34.4694 3.88411 34.6452 3.17448 34.9902 2.58203C35.3353 1.98958 35.8236 1.54362 36.4551 1.24414C37.0866 0.944661 37.8451 0.794922 38.7305 0.794922C39.2513 0.794922 39.7493 0.85026 40.2246 0.960938C40.7064 1.07161 41.2044 1.21159 41.7188 1.38086L41.3574 3.34375C40.459 3.03125 39.6387 2.875 38.8965 2.875C38.1738 2.875 37.6497 3.03451 37.3242 3.35352C36.9987 3.66602 36.8359 4.13802 36.8359 4.76953V5.43359H38.916V7.19141H36.8359V16H34.4629ZM42.8418 16H40.4688V5.43359H42.8418V16ZM49.8145 14.3008C50.4069 14.3008 50.8984 14.1283 51.2891 13.7832C51.6797 13.4382 51.888 13.0117 51.9141 12.5039H54.1504C54.1243 13.1615 53.9193 13.7767 53.5352 14.3496C53.151 14.916 52.6302 15.3652 51.9727 15.6973C51.3151 16.0293 50.6055 16.1953 49.8438 16.1953C48.3659 16.1953 47.194 15.7168 46.3281 14.7598C45.4622 13.8027 45.0293 12.4811 45.0293 10.7949V10.5508C45.0293 8.94271 45.459 7.6569 46.3184 6.69336C47.1777 5.72331 48.3496 5.23828 49.834 5.23828C51.0905 5.23828 52.1126 5.60612 52.9004 6.3418C53.6947 7.07096 54.1113 8.03125 54.1504 9.22266H51.9141C51.888 8.61719 51.6797 8.11914 51.2891 7.72852C50.9049 7.33789 50.4134 7.14258 49.8145 7.14258C49.0462 7.14258 48.4538 7.42253 48.0371 7.98242C47.6204 8.53581 47.4089 9.37891 47.4023 10.5117V10.8926C47.4023 12.0384 47.6074 12.8945 48.0176 13.4609C48.4342 14.0208 49.0332 14.3008 49.8145 14.3008ZM58.4668 16H56.0938V5.43359H58.4668V16ZM55.9473 2.68945C55.9473 2.32487 56.0612 2.02214 56.2891 1.78125C56.5234 1.54036 56.8555 1.41992 57.2852 1.41992C57.7148 1.41992 58.0469 1.54036 58.2812 1.78125C58.5156 2.02214 58.6328 2.32487 58.6328 2.68945C58.6328 3.04753 58.5156 3.34701 58.2812 3.58789C58.0469 3.82227 57.7148 3.93945 57.2852 3.93945C56.8555 3.93945 56.5234 3.82227 56.2891 3.58789C56.0612 3.34701 55.9473 3.04753 55.9473 2.68945ZM67.373 16C67.2689 15.7982 67.1777 15.4694 67.0996 15.0137C66.3444 15.8014 65.4199 16.1953 64.3262 16.1953C63.265 16.1953 62.3991 15.8926 61.7285 15.2871C61.0579 14.6816 60.7227 13.9329 60.7227 13.041C60.7227 11.9147 61.1393 11.0521 61.9727 10.4531C62.8125 9.84766 64.0104 9.54492 65.5664 9.54492H67.0215V8.85156C67.0215 8.30469 66.8685 7.86849 66.5625 7.54297C66.2565 7.21094 65.791 7.04492 65.166 7.04492C64.6257 7.04492 64.1829 7.18164 63.8379 7.45508C63.4928 7.72201 63.3203 8.0638 63.3203 8.48047H60.9473C60.9473 7.90104 61.1393 7.36068 61.5234 6.85938C61.9076 6.35156 62.4284 5.95443 63.0859 5.66797C63.75 5.38151 64.4889 5.23828 65.3027 5.23828C66.5397 5.23828 67.526 5.55078 68.2617 6.17578C68.9974 6.79427 69.375 7.66667 69.3945 8.79297V13.5586C69.3945 14.5091 69.528 15.2676 69.7949 15.834V16H67.373ZM64.7656 14.291C65.2344 14.291 65.6738 14.1771 66.084 13.9492C66.5007 13.7214 66.8132 13.4154 67.0215 13.0312V11.0391H65.7422C64.8633 11.0391 64.2025 11.1921 63.7598 11.498C63.3171 11.804 63.0957 12.237 63.0957 12.7969C63.0957 13.2526 63.2454 13.6172 63.5449 13.8906C63.8509 14.1576 64.2578 14.291 64.7656 14.291ZM74.4043 16H72.0312V1H74.4043V16ZM84.8145 16H82.3535V1.78125H84.8145V16ZM89.8242 5.43359L89.8926 6.6543C90.6738 5.71029 91.6992 5.23828 92.9688 5.23828C95.1693 5.23828 96.2891 6.49805 96.3281 9.01758V16H93.9551V9.1543C93.9551 8.48372 93.8086 7.98893 93.5156 7.66992C93.2292 7.3444 92.7572 7.18164 92.0996 7.18164C91.1426 7.18164 90.4297 7.61458 89.9609 8.48047V16H87.5879V5.43359H89.8242ZM101.729 2.86523V5.43359H103.594V7.19141H101.729V13.0898C101.729 13.4935 101.807 13.7865 101.963 13.9688C102.126 14.1445 102.412 14.2324 102.822 14.2324C103.096 14.2324 103.372 14.1999 103.652 14.1348V15.9707C103.112 16.1204 102.591 16.1953 102.09 16.1953C100.267 16.1953 99.3555 15.1895 99.3555 13.1777V7.19141H97.6172V5.43359H99.3555V2.86523H101.729ZM110.068 16.1953C108.564 16.1953 107.344 15.7233 106.406 14.7793C105.475 13.8288 105.01 12.5658 105.01 10.9902V10.6973C105.01 9.64258 105.212 8.70182 105.615 7.875C106.025 7.04167 106.598 6.39388 107.334 5.93164C108.07 5.4694 108.89 5.23828 109.795 5.23828C111.234 5.23828 112.344 5.69727 113.125 6.61523C113.913 7.5332 114.307 8.83203 114.307 10.5117V11.4688H107.402C107.474 12.3411 107.764 13.0312 108.271 13.5391C108.786 14.0469 109.43 14.3008 110.205 14.3008C111.292 14.3008 112.178 13.8613 112.861 12.9824L114.141 14.2031C113.717 14.8346 113.151 15.3262 112.441 15.6777C111.738 16.0228 110.947 16.1953 110.068 16.1953ZM109.785 7.14258C109.134 7.14258 108.607 7.37044 108.203 7.82617C107.806 8.2819 107.552 8.91667 107.441 9.73047H111.963V9.55469C111.911 8.76042 111.699 8.16146 111.328 7.75781C110.957 7.34766 110.443 7.14258 109.785 7.14258ZM118.682 16H116.309V1H118.682V16ZM123.799 16H121.426V1H123.799V16ZM128.916 16H126.543V5.43359H128.916V16ZM126.396 2.68945C126.396 2.32487 126.51 2.02214 126.738 1.78125C126.973 1.54036 127.305 1.41992 127.734 1.41992C128.164 1.41992 128.496 1.54036 128.73 1.78125C128.965 2.02214 129.082 2.32487 129.082 2.68945C129.082 3.04753 128.965 3.34701 128.73 3.58789C128.496 3.82227 128.164 3.93945 127.734 3.93945C127.305 3.93945 126.973 3.82227 126.738 3.58789C126.51 3.34701 126.396 3.04753 126.396 2.68945ZM131.094 10.6387C131.094 8.99805 131.478 7.68945 132.246 6.71289C133.021 5.72982 134.046 5.23828 135.322 5.23828C136.527 5.23828 137.474 5.6582 138.164 6.49805L138.271 5.43359H140.41V15.6777C140.41 17.0645 139.977 18.1582 139.111 18.959C138.252 19.7598 137.09 20.1602 135.625 20.1602C134.85 20.1602 134.092 19.9974 133.35 19.6719C132.614 19.3529 132.054 18.9329 131.67 18.4121L132.793 16.9863C133.522 17.8522 134.421 18.2852 135.488 18.2852C136.276 18.2852 136.898 18.0703 137.354 17.6406C137.809 17.2174 138.037 16.5924 138.037 15.7656V15.0527C137.354 15.8145 136.442 16.1953 135.303 16.1953C134.066 16.1953 133.053 15.7038 132.266 14.7207C131.484 13.7376 131.094 12.377 131.094 10.6387ZM133.457 10.8438C133.457 11.9049 133.672 12.7415 134.102 13.3535C134.538 13.959 135.14 14.2617 135.908 14.2617C136.865 14.2617 137.575 13.8516 138.037 13.0312V8.38281C137.588 7.58203 136.885 7.18164 135.928 7.18164C135.146 7.18164 134.538 7.49089 134.102 8.10938C133.672 8.72786 133.457 9.63932 133.457 10.8438ZM147.51 16.1953C146.006 16.1953 144.785 15.7233 143.848 14.7793C142.917 13.8288 142.451 12.5658 142.451 10.9902V10.6973C142.451 9.64258 142.653 8.70182 143.057 7.875C143.467 7.04167 144.04 6.39388 144.775 5.93164C145.511 5.4694 146.331 5.23828 147.236 5.23828C148.675 5.23828 149.785 5.69727 150.566 6.61523C151.354 7.5332 151.748 8.83203 151.748 10.5117V11.4688H144.844C144.915 12.3411 145.205 13.0312 145.713 13.5391C146.227 14.0469 146.872 14.3008 147.646 14.3008C148.734 14.3008 149.619 13.8613 150.303 12.9824L151.582 14.2031C151.159 14.8346 150.592 15.3262 149.883 15.6777C149.18 16.0228 148.389 16.1953 147.51 16.1953ZM147.227 7.14258C146.576 7.14258 146.048 7.37044 145.645 7.82617C145.247 8.2819 144.993 8.91667 144.883 9.73047H149.404V9.55469C149.352 8.76042 149.141 8.16146 148.77 7.75781C148.398 7.34766 147.884 7.14258 147.227 7.14258ZM155.801 5.43359L155.869 6.6543C156.65 5.71029 157.676 5.23828 158.945 5.23828C161.146 5.23828 162.266 6.49805 162.305 9.01758V16H159.932V9.1543C159.932 8.48372 159.785 7.98893 159.492 7.66992C159.206 7.3444 158.734 7.18164 158.076 7.18164C157.119 7.18164 156.406 7.61458 155.938 8.48047V16H153.564V5.43359H155.801ZM169.072 14.3008C169.665 14.3008 170.156 14.1283 170.547 13.7832C170.938 13.4382 171.146 13.0117 171.172 12.5039H173.408C173.382 13.1615 173.177 13.7767 172.793 14.3496C172.409 14.916 171.888 15.3652 171.23 15.6973C170.573 16.0293 169.863 16.1953 169.102 16.1953C167.624 16.1953 166.452 15.7168 165.586 14.7598C164.72 13.8027 164.287 12.4811 164.287 10.7949V10.5508C164.287 8.94271 164.717 7.6569 165.576 6.69336C166.436 5.72331 167.607 5.23828 169.092 5.23828C170.348 5.23828 171.37 5.60612 172.158 6.3418C172.952 7.07096 173.369 8.03125 173.408 9.22266H171.172C171.146 8.61719 170.938 8.11914 170.547 7.72852C170.163 7.33789 169.671 7.14258 169.072 7.14258C168.304 7.14258 167.712 7.42253 167.295 7.98242C166.878 8.53581 166.667 9.37891 166.66 10.5117V10.8926C166.66 12.0384 166.865 12.8945 167.275 13.4609C167.692 14.0208 168.291 14.3008 169.072 14.3008ZM179.854 16.1953C178.35 16.1953 177.129 15.7233 176.191 14.7793C175.26 13.8288 174.795 12.5658 174.795 10.9902V10.6973C174.795 9.64258 174.997 8.70182 175.4 7.875C175.811 7.04167 176.383 6.39388 177.119 5.93164C177.855 5.4694 178.675 5.23828 179.58 5.23828C181.019 5.23828 182.129 5.69727 182.91 6.61523C183.698 7.5332 184.092 8.83203 184.092 10.5117V11.4688H177.188C177.259 12.3411 177.549 13.0312 178.057 13.5391C178.571 14.0469 179.215 14.3008 179.99 14.3008C181.077 14.3008 181.963 13.8613 182.646 12.9824L183.926 14.2031C183.503 14.8346 182.936 15.3262 182.227 15.6777C181.523 16.0228 180.732 16.1953 179.854 16.1953ZM179.57 7.14258C178.919 7.14258 178.392 7.37044 177.988 7.82617C177.591 8.2819 177.337 8.91667 177.227 9.73047H181.748V9.55469C181.696 8.76042 181.484 8.16146 181.113 7.75781C180.742 7.34766 180.228 7.14258 179.57 7.14258Z" fill="#494747"/>
</svg>
