<svg width="128" height="20" viewBox="0 0 128 20" fill="none" xmlns="http://www.w3.org/2000/svg">
<path d="M12.2949 10.3711C12.1517 11.888 11.5918 13.0729 10.6152 13.9258C9.63867 14.7721 8.33984 15.1953 6.71875 15.1953C5.58594 15.1953 4.58659 14.9284 3.7207 14.3945C2.86133 13.8542 2.19727 13.0892 1.72852 12.0996C1.25977 11.11 1.01562 9.96094 0.996094 8.65234V7.32422C0.996094 5.98307 1.23372 4.80143 1.70898 3.7793C2.18424 2.75716 2.86458 1.9694 3.75 1.41602C4.64193 0.86263 5.67057 0.585938 6.83594 0.585938C8.40495 0.585938 9.66797 1.01237 10.625 1.86523C11.582 2.7181 12.1387 3.92253 12.2949 5.47852H9.83398C9.7168 4.45638 9.41732 3.7207 8.93555 3.27148C8.46029 2.81576 7.76042 2.58789 6.83594 2.58789C5.76172 2.58789 4.9349 2.98177 4.35547 3.76953C3.78255 4.55078 3.48958 5.69987 3.47656 7.2168V8.47656C3.47656 10.013 3.75 11.1849 4.29688 11.9922C4.85026 12.7995 5.65755 13.2031 6.71875 13.2031C7.6888 13.2031 8.41797 12.985 8.90625 12.5488C9.39453 12.1126 9.70378 11.3867 9.83398 10.3711H12.2949ZM17.9785 11.6016L20.127 4.43359H22.6562L18.457 16.6016C17.8125 18.3789 16.7188 19.2676 15.1758 19.2676C14.8307 19.2676 14.4499 19.209 14.0332 19.0918V17.2559L14.4824 17.2852C15.0814 17.2852 15.5306 17.1745 15.8301 16.9531C16.1361 16.7383 16.377 16.3737 16.5527 15.8594L16.8945 14.9512L13.1836 4.43359H15.7422L17.9785 11.6016ZM33.3008 9.82422C33.3008 11.4648 32.9329 12.7702 32.1973 13.7402C31.4681 14.7103 30.4622 15.1953 29.1797 15.1953C27.9427 15.1953 26.9792 14.7493 26.2891 13.8574L26.1719 15H24.0234V0H26.3965V5.44922C27.0801 4.64193 28.0013 4.23828 29.1602 4.23828C30.4492 4.23828 31.4616 4.7168 32.1973 5.67383C32.9329 6.63086 33.3008 7.96875 33.3008 9.6875V9.82422ZM30.9277 9.61914C30.9277 8.47331 30.7259 7.61393 30.3223 7.04102C29.9186 6.4681 29.3327 6.18164 28.5645 6.18164C27.5358 6.18164 26.8132 6.63086 26.3965 7.5293V11.8848C26.8197 12.8027 27.5488 13.2617 28.584 13.2617C29.3262 13.2617 29.8991 12.985 30.3027 12.4316C30.7064 11.8783 30.9147 11.0417 30.9277 9.92188V9.61914ZM39.9512 15.1953C38.4473 15.1953 37.2266 14.7233 36.2891 13.7793C35.3581 12.8288 34.8926 11.5658 34.8926 9.99023V9.69727C34.8926 8.64258 35.0944 7.70182 35.498 6.875C35.9082 6.04167 36.4811 5.39388 37.2168 4.93164C37.9525 4.4694 38.7728 4.23828 39.6777 4.23828C41.1165 4.23828 42.2266 4.69727 43.0078 5.61523C43.7956 6.5332 44.1895 7.83203 44.1895 9.51172V10.4688H37.2852C37.3568 11.3411 37.6465 12.0312 38.1543 12.5391C38.6686 13.0469 39.3132 13.3008 40.0879 13.3008C41.1751 13.3008 42.0605 12.8613 42.7441 11.9824L44.0234 13.2031C43.6003 13.8346 43.0339 14.3262 42.3242 14.6777C41.6211 15.0228 40.8301 15.1953 39.9512 15.1953ZM39.668 6.14258C39.0169 6.14258 38.4896 6.37044 38.0859 6.82617C37.6888 7.2819 37.4349 7.91667 37.3242 8.73047H41.8457V8.55469C41.7936 7.76042 41.582 7.16146 41.2109 6.75781C40.8398 6.34766 40.3255 6.14258 39.668 6.14258ZM51.5723 6.60156C51.2598 6.54948 50.9375 6.52344 50.6055 6.52344C49.5182 6.52344 48.7858 6.9401 48.4082 7.77344V15H46.0352V4.43359H48.3008L48.3594 5.61523C48.9323 4.69727 49.7266 4.23828 50.7422 4.23828C51.0807 4.23828 51.3607 4.28385 51.582 4.375L51.5723 6.60156ZM63.9746 12.1289C63.9746 11.7057 63.7988 11.3835 63.4473 11.1621C63.1022 10.9408 62.526 10.7454 61.7188 10.5762C60.9115 10.4069 60.2376 10.1921 59.6973 9.93164C58.5124 9.35872 57.9199 8.52865 57.9199 7.44141C57.9199 6.52995 58.304 5.76823 59.0723 5.15625C59.8405 4.54427 60.8171 4.23828 62.002 4.23828C63.265 4.23828 64.2839 4.55078 65.0586 5.17578C65.8398 5.80078 66.2305 6.61133 66.2305 7.60742H63.8574C63.8574 7.15169 63.6882 6.77409 63.3496 6.47461C63.0111 6.16862 62.5618 6.01562 62.002 6.01562C61.4811 6.01562 61.0547 6.13607 60.7227 6.37695C60.3971 6.61784 60.2344 6.9401 60.2344 7.34375C60.2344 7.70833 60.3874 7.99154 60.6934 8.19336C60.9993 8.39518 61.6178 8.60026 62.5488 8.80859C63.4798 9.01042 64.209 9.25456 64.7363 9.54102C65.2702 9.82096 65.6641 10.1595 65.918 10.5566C66.1784 10.9538 66.3086 11.4355 66.3086 12.002C66.3086 12.9525 65.9147 13.724 65.127 14.3164C64.3392 14.9023 63.3073 15.1953 62.0312 15.1953C61.1654 15.1953 60.3939 15.0391 59.7168 14.7266C59.0397 14.4141 58.5124 13.9844 58.1348 13.4375C57.7572 12.8906 57.5684 12.3014 57.5684 11.6699H59.873C59.9056 12.2298 60.1172 12.6628 60.5078 12.9688C60.8984 13.2682 61.416 13.418 62.0605 13.418C62.6855 13.418 63.1608 13.3008 63.4863 13.0664C63.8118 12.8255 63.9746 12.513 63.9746 12.1289ZM73.0371 15.1953C71.5332 15.1953 70.3125 14.7233 69.375 13.7793C68.444 12.8288 67.9785 11.5658 67.9785 9.99023V9.69727C67.9785 8.64258 68.1803 7.70182 68.584 6.875C68.9941 6.04167 69.5671 5.39388 70.3027 4.93164C71.0384 4.4694 71.8587 4.23828 72.7637 4.23828C74.2025 4.23828 75.3125 4.69727 76.0938 5.61523C76.8815 6.5332 77.2754 7.83203 77.2754 9.51172V10.4688H70.3711C70.4427 11.3411 70.7324 12.0312 71.2402 12.5391C71.7546 13.0469 72.3991 13.3008 73.1738 13.3008C74.2611 13.3008 75.1465 12.8613 75.8301 11.9824L77.1094 13.2031C76.6862 13.8346 76.1198 14.3262 75.4102 14.6777C74.707 15.0228 73.916 15.1953 73.0371 15.1953ZM72.7539 6.14258C72.1029 6.14258 71.5755 6.37044 71.1719 6.82617C70.7747 7.2819 70.5208 7.91667 70.4102 8.73047H74.9316V8.55469C74.8796 7.76042 74.668 7.16146 74.2969 6.75781C73.9258 6.34766 73.4115 6.14258 72.7539 6.14258ZM83.4668 13.3008C84.0592 13.3008 84.5508 13.1283 84.9414 12.7832C85.332 12.4382 85.5404 12.0117 85.5664 11.5039H87.8027C87.7767 12.1615 87.5716 12.7767 87.1875 13.3496C86.8034 13.916 86.2826 14.3652 85.625 14.6973C84.9674 15.0293 84.2578 15.1953 83.4961 15.1953C82.0182 15.1953 80.8464 14.7168 79.9805 13.7598C79.1146 12.8027 78.6816 11.4811 78.6816 9.79492V9.55078C78.6816 7.94271 79.1113 6.6569 79.9707 5.69336C80.8301 4.72331 82.002 4.23828 83.4863 4.23828C84.7428 4.23828 85.765 4.60612 86.5527 5.3418C87.347 6.07096 87.7637 7.03125 87.8027 8.22266H85.5664C85.5404 7.61719 85.332 7.11914 84.9414 6.72852C84.5573 6.33789 84.0658 6.14258 83.4668 6.14258C82.6986 6.14258 82.1061 6.42253 81.6895 6.98242C81.2728 7.53581 81.0612 8.37891 81.0547 9.51172V9.89258C81.0547 11.0384 81.2598 11.8945 81.6699 12.4609C82.0866 13.0208 82.6855 13.3008 83.4668 13.3008ZM95.9961 13.9648C95.2995 14.7852 94.3099 15.1953 93.0273 15.1953C91.8815 15.1953 91.0124 14.86 90.4199 14.1895C89.834 13.5189 89.541 12.5488 89.541 11.2793V4.43359H91.9141V11.25C91.9141 12.5911 92.4707 13.2617 93.584 13.2617C94.7363 13.2617 95.5143 12.8483 95.918 12.0215V4.43359H98.291V15H96.0547L95.9961 13.9648ZM106.24 6.60156C105.928 6.54948 105.605 6.52344 105.273 6.52344C104.186 6.52344 103.454 6.9401 103.076 7.77344V15H100.703V4.43359H102.969L103.027 5.61523C103.6 4.69727 104.395 4.23828 105.41 4.23828C105.749 4.23828 106.029 4.28385 106.25 4.375L106.24 6.60156ZM110.264 15H107.891V4.43359H110.264V15ZM107.744 1.68945C107.744 1.32487 107.858 1.02214 108.086 0.78125C108.32 0.540365 108.652 0.419922 109.082 0.419922C109.512 0.419922 109.844 0.540365 110.078 0.78125C110.312 1.02214 110.43 1.32487 110.43 1.68945C110.43 2.04753 110.312 2.34701 110.078 2.58789C109.844 2.82227 109.512 2.93945 109.082 2.93945C108.652 2.93945 108.32 2.82227 108.086 2.58789C107.858 2.34701 107.744 2.04753 107.744 1.68945ZM115.83 1.86523V4.43359H117.695V6.19141H115.83V12.0898C115.83 12.4935 115.908 12.7865 116.064 12.9688C116.227 13.1445 116.514 13.2324 116.924 13.2324C117.197 13.2324 117.474 13.1999 117.754 13.1348V14.9707C117.214 15.1204 116.693 15.1953 116.191 15.1953C114.368 15.1953 113.457 14.1895 113.457 12.1777V6.19141H111.719V4.43359H113.457V1.86523H115.83ZM123.213 11.6016L125.361 4.43359H127.891L123.691 16.6016C123.047 18.3789 121.953 19.2676 120.41 19.2676C120.065 19.2676 119.684 19.209 119.268 19.0918V17.2559L119.717 17.2852C120.316 17.2852 120.765 17.1745 121.064 16.9531C121.37 16.7383 121.611 16.3737 121.787 15.8594L122.129 14.9512L118.418 4.43359H120.977L123.213 11.6016Z" fill="#494747"/>
</svg>
