<svg width="61" height="20" viewBox="0 0 61 20" fill="none" xmlns="http://www.w3.org/2000/svg">
<path d="M2.91602 9.7168V15H0.445312V0.78125H5.88477C7.47331 0.78125 8.73307 1.19466 9.66406 2.02148C10.6016 2.84831 11.0703 3.94206 11.0703 5.30273C11.0703 6.69596 10.6113 7.77995 9.69336 8.55469C8.7819 9.32943 7.5026 9.7168 5.85547 9.7168H2.91602ZM2.91602 7.73438H5.88477C6.76367 7.73438 7.43424 7.5293 7.89648 7.11914C8.35872 6.70247 8.58984 6.10352 8.58984 5.32227C8.58984 4.55404 8.35547 3.94206 7.88672 3.48633C7.41797 3.02409 6.77344 2.78646 5.95312 2.77344H2.91602V7.73438ZM16.8613 11.6016L19.0098 4.43359H21.5391L17.3398 16.6016C16.6953 18.3789 15.6016 19.2676 14.0586 19.2676C13.7135 19.2676 13.3327 19.209 12.916 19.0918V17.2559L13.3652 17.2852C13.9642 17.2852 14.4134 17.1745 14.7129 16.9531C15.0189 16.7383 15.2598 16.3737 15.4355 15.8594L15.7773 14.9512L12.0664 4.43359H14.625L16.8613 11.6016ZM25.8848 1.86523V4.43359H27.75V6.19141H25.8848V12.0898C25.8848 12.4935 25.9629 12.7865 26.1191 12.9688C26.2819 13.1445 26.5684 13.2324 26.9785 13.2324C27.252 13.2324 27.5286 13.1999 27.8086 13.1348V14.9707C27.2682 15.1204 26.7474 15.1953 26.2461 15.1953C24.4232 15.1953 23.5117 14.1895 23.5117 12.1777V6.19141H21.7734V4.43359H23.5117V1.86523H25.8848ZM31.9102 5.58594C32.6849 4.6875 33.6647 4.23828 34.8496 4.23828C37.1022 4.23828 38.2448 5.52409 38.2773 8.0957V15H35.9043V8.18359C35.9043 7.45443 35.7448 6.9401 35.4258 6.64062C35.1133 6.33464 34.651 6.18164 34.0391 6.18164C33.0885 6.18164 32.3789 6.60482 31.9102 7.45117V15H29.5371V0H31.9102V5.58594ZM40.2402 9.61914C40.2402 8.58398 40.4453 7.65299 40.8555 6.82617C41.2656 5.99284 41.8418 5.35482 42.584 4.91211C43.3262 4.46289 44.179 4.23828 45.1426 4.23828C46.5684 4.23828 47.724 4.69727 48.6094 5.61523C49.5013 6.5332 49.9831 7.75065 50.0547 9.26758L50.0645 9.82422C50.0645 10.8659 49.8626 11.7969 49.459 12.6172C49.0618 13.4375 48.4889 14.0723 47.7402 14.5215C46.998 14.9707 46.1387 15.1953 45.1621 15.1953C43.6712 15.1953 42.4766 14.7005 41.5781 13.7109C40.6862 12.7148 40.2402 11.39 40.2402 9.73633V9.61914ZM42.6133 9.82422C42.6133 10.9115 42.8379 11.7643 43.2871 12.3828C43.7363 12.9948 44.3613 13.3008 45.1621 13.3008C45.9629 13.3008 46.5846 12.9883 47.0273 12.3633C47.4766 11.7383 47.7012 10.8236 47.7012 9.61914C47.7012 8.55143 47.4701 7.70508 47.0078 7.08008C46.5521 6.45508 45.9303 6.14258 45.1426 6.14258C44.3678 6.14258 43.7526 6.45182 43.2969 7.07031C42.8411 7.68229 42.6133 8.60026 42.6133 9.82422ZM54.2734 4.43359L54.3418 5.6543C55.123 4.71029 56.1484 4.23828 57.418 4.23828C59.6185 4.23828 60.7383 5.49805 60.7773 8.01758V15H58.4043V8.1543C58.4043 7.48372 58.2578 6.98893 57.9648 6.66992C57.6784 6.3444 57.2064 6.18164 56.5488 6.18164C55.5918 6.18164 54.8789 6.61458 54.4102 7.48047V15H52.0371V4.43359H54.2734Z" fill="#494747"/>
</svg>
