<svg width="162" height="20" viewBox="0 0 162 20" fill="none" xmlns="http://www.w3.org/2000/svg">
<path d="M12.5977 11.4844L14.7852 0.78125H17.2363L13.9551 15H11.5918L8.88672 4.61914L6.12305 15H3.75L0.46875 0.78125H2.91992L5.12695 11.4648L7.8418 0.78125H9.91211L12.5977 11.4844ZM23.1543 15.1953C21.6504 15.1953 20.4297 14.7233 19.4922 13.7793C18.5612 12.8288 18.0957 11.5658 18.0957 9.99023V9.69727C18.0957 8.64258 18.2975 7.70182 18.7012 6.875C19.1113 6.04167 19.6842 5.39388 20.4199 4.93164C21.1556 4.4694 21.9759 4.23828 22.8809 4.23828C24.3197 4.23828 25.4297 4.69727 26.2109 5.61523C26.9987 6.5332 27.3926 7.83203 27.3926 9.51172V10.4688H20.4883C20.5599 11.3411 20.8496 12.0312 21.3574 12.5391C21.8717 13.0469 22.5163 13.3008 23.291 13.3008C24.3783 13.3008 25.2637 12.8613 25.9473 11.9824L27.2266 13.2031C26.8034 13.8346 26.237 14.3262 25.5273 14.6777C24.8242 15.0228 24.0332 15.1953 23.1543 15.1953ZM22.8711 6.14258C22.2201 6.14258 21.6927 6.37044 21.2891 6.82617C20.8919 7.2819 20.638 7.91667 20.5273 8.73047H25.0488V8.55469C24.9967 7.76042 24.7852 7.16146 24.4141 6.75781C24.043 6.34766 23.5286 6.14258 22.8711 6.14258ZM38.5156 9.82422C38.5156 11.4648 38.1478 12.7702 37.4121 13.7402C36.6829 14.7103 35.6771 15.1953 34.3945 15.1953C33.1576 15.1953 32.194 14.7493 31.5039 13.8574L31.3867 15H29.2383V0H31.6113V5.44922C32.2949 4.64193 33.2161 4.23828 34.375 4.23828C35.6641 4.23828 36.6764 4.7168 37.4121 5.67383C38.1478 6.63086 38.5156 7.96875 38.5156 9.6875V9.82422ZM36.1426 9.61914C36.1426 8.47331 35.9408 7.61393 35.5371 7.04102C35.1335 6.4681 34.5475 6.18164 33.7793 6.18164C32.7507 6.18164 32.028 6.63086 31.6113 7.5293V11.8848C32.0345 12.8027 32.7637 13.2617 33.7988 13.2617C34.541 13.2617 35.1139 12.985 35.5176 12.4316C35.9212 11.8783 36.1296 11.0417 36.1426 9.92188V9.61914ZM45.7227 15V0.78125H49.9219C51.1784 0.78125 52.2917 1.0612 53.2617 1.62109C54.2383 2.18099 54.9935 2.97526 55.5273 4.00391C56.0612 5.03255 56.3281 6.21094 56.3281 7.53906V8.25195C56.3281 9.59961 56.0579 10.7845 55.5176 11.8066C54.9837 12.8288 54.2188 13.6165 53.2227 14.1699C52.2331 14.7233 51.097 15 49.8145 15H45.7227ZM48.1934 2.77344V13.0273H49.8047C51.1003 13.0273 52.0931 12.6237 52.7832 11.8164C53.4798 11.0026 53.8346 9.83724 53.8477 8.32031V7.5293C53.8477 5.98633 53.5124 4.80794 52.8418 3.99414C52.1712 3.18034 51.1979 2.77344 49.9219 2.77344H48.1934ZM63.2129 15.1953C61.709 15.1953 60.4883 14.7233 59.5508 13.7793C58.6198 12.8288 58.1543 11.5658 58.1543 9.99023V9.69727C58.1543 8.64258 58.3561 7.70182 58.7598 6.875C59.1699 6.04167 59.7428 5.39388 60.4785 4.93164C61.2142 4.4694 62.0345 4.23828 62.9395 4.23828C64.3783 4.23828 65.4883 4.69727 66.2695 5.61523C67.0573 6.5332 67.4512 7.83203 67.4512 9.51172V10.4688H60.5469C60.6185 11.3411 60.9082 12.0312 61.416 12.5391C61.9303 13.0469 62.5749 13.3008 63.3496 13.3008C64.4368 13.3008 65.3223 12.8613 66.0059 11.9824L67.2852 13.2031C66.862 13.8346 66.2956 14.3262 65.5859 14.6777C64.8828 15.0228 64.0918 15.1953 63.2129 15.1953ZM62.9297 6.14258C62.2786 6.14258 61.7513 6.37044 61.3477 6.82617C60.9505 7.2819 60.6966 7.91667 60.5859 8.73047H65.1074V8.55469C65.0553 7.76042 64.8438 7.16146 64.4727 6.75781C64.1016 6.34766 63.5872 6.14258 62.9297 6.14258ZM72.8906 11.9922L75.127 4.43359H77.5781L73.916 15H71.8555L68.1641 4.43359H70.625L72.8906 11.9922ZM83.584 15.1953C82.0801 15.1953 80.8594 14.7233 79.9219 13.7793C78.9909 12.8288 78.5254 11.5658 78.5254 9.99023V9.69727C78.5254 8.64258 78.7272 7.70182 79.1309 6.875C79.541 6.04167 80.1139 5.39388 80.8496 4.93164C81.5853 4.4694 82.4056 4.23828 83.3105 4.23828C84.7493 4.23828 85.8594 4.69727 86.6406 5.61523C87.4284 6.5332 87.8223 7.83203 87.8223 9.51172V10.4688H80.918C80.9896 11.3411 81.2793 12.0312 81.7871 12.5391C82.3014 13.0469 82.946 13.3008 83.7207 13.3008C84.8079 13.3008 85.6934 12.8613 86.377 11.9824L87.6562 13.2031C87.2331 13.8346 86.6667 14.3262 85.957 14.6777C85.2539 15.0228 84.4629 15.1953 83.584 15.1953ZM83.3008 6.14258C82.6497 6.14258 82.1224 6.37044 81.7188 6.82617C81.3216 7.2819 81.0677 7.91667 80.957 8.73047H85.4785V8.55469C85.4264 7.76042 85.2148 7.16146 84.8438 6.75781C84.4727 6.34766 83.9583 6.14258 83.3008 6.14258ZM92.1973 15H89.8242V0H92.1973V15ZM94.3457 9.61914C94.3457 8.58398 94.5508 7.65299 94.9609 6.82617C95.3711 5.99284 95.9473 5.35482 96.6895 4.91211C97.4316 4.46289 98.2845 4.23828 99.248 4.23828C100.674 4.23828 101.829 4.69727 102.715 5.61523C103.607 6.5332 104.089 7.75065 104.16 9.26758L104.17 9.82422C104.17 10.8659 103.968 11.7969 103.564 12.6172C103.167 13.4375 102.594 14.0723 101.846 14.5215C101.104 14.9707 100.244 15.1953 99.2676 15.1953C97.7767 15.1953 96.582 14.7005 95.6836 13.7109C94.7917 12.7148 94.3457 11.39 94.3457 9.73633V9.61914ZM96.7188 9.82422C96.7188 10.9115 96.9434 11.7643 97.3926 12.3828C97.8418 12.9948 98.4668 13.3008 99.2676 13.3008C100.068 13.3008 100.69 12.9883 101.133 12.3633C101.582 11.7383 101.807 10.8236 101.807 9.61914C101.807 8.55143 101.576 7.70508 101.113 7.08008C100.658 6.45508 100.036 6.14258 99.248 6.14258C98.4733 6.14258 97.8581 6.45182 97.4023 7.07031C96.9466 7.68229 96.7188 8.60026 96.7188 9.82422ZM115.43 9.82422C115.43 11.4583 115.059 12.7637 114.316 13.7402C113.574 14.7103 112.578 15.1953 111.328 15.1953C110.169 15.1953 109.242 14.8145 108.545 14.0527V19.0625H106.172V4.43359H108.359L108.457 5.50781C109.154 4.66146 110.101 4.23828 111.299 4.23828C112.588 4.23828 113.597 4.72005 114.326 5.68359C115.062 6.64062 115.43 7.97201 115.43 9.67773V9.82422ZM113.066 9.61914C113.066 8.56445 112.855 7.72786 112.432 7.10938C112.015 6.49089 111.416 6.18164 110.635 6.18164C109.665 6.18164 108.968 6.58203 108.545 7.38281V12.0703C108.975 12.8906 109.678 13.3008 110.654 13.3008C111.41 13.3008 111.999 12.998 112.422 12.3926C112.852 11.7806 113.066 10.8561 113.066 9.61914ZM119.678 4.43359L119.746 5.53711C120.488 4.67122 121.504 4.23828 122.793 4.23828C124.206 4.23828 125.173 4.77865 125.693 5.85938C126.462 4.77865 127.542 4.23828 128.936 4.23828C130.101 4.23828 130.967 4.56055 131.533 5.20508C132.106 5.84961 132.399 6.80013 132.412 8.05664V15H130.039V8.125C130.039 7.45443 129.893 6.96289 129.6 6.65039C129.307 6.33789 128.822 6.18164 128.145 6.18164C127.604 6.18164 127.161 6.32812 126.816 6.62109C126.478 6.90755 126.24 7.28516 126.104 7.75391L126.113 15H123.74V8.04688C123.708 6.80339 123.073 6.18164 121.836 6.18164C120.885 6.18164 120.212 6.56901 119.814 7.34375V15H117.441V4.43359H119.678ZM139.502 15.1953C137.998 15.1953 136.777 14.7233 135.84 13.7793C134.909 12.8288 134.443 11.5658 134.443 9.99023V9.69727C134.443 8.64258 134.645 7.70182 135.049 6.875C135.459 6.04167 136.032 5.39388 136.768 4.93164C137.503 4.4694 138.324 4.23828 139.229 4.23828C140.667 4.23828 141.777 4.69727 142.559 5.61523C143.346 6.5332 143.74 7.83203 143.74 9.51172V10.4688H136.836C136.908 11.3411 137.197 12.0312 137.705 12.5391C138.219 13.0469 138.864 13.3008 139.639 13.3008C140.726 13.3008 141.611 12.8613 142.295 11.9824L143.574 13.2031C143.151 13.8346 142.585 14.3262 141.875 14.6777C141.172 15.0228 140.381 15.1953 139.502 15.1953ZM139.219 6.14258C138.568 6.14258 138.04 6.37044 137.637 6.82617C137.24 7.2819 136.986 7.91667 136.875 8.73047H141.396V8.55469C141.344 7.76042 141.133 7.16146 140.762 6.75781C140.391 6.34766 139.876 6.14258 139.219 6.14258ZM147.793 4.43359L147.861 5.6543C148.643 4.71029 149.668 4.23828 150.938 4.23828C153.138 4.23828 154.258 5.49805 154.297 8.01758V15H151.924V8.1543C151.924 7.48372 151.777 6.98893 151.484 6.66992C151.198 6.3444 150.726 6.18164 150.068 6.18164C149.111 6.18164 148.398 6.61458 147.93 7.48047V15H145.557V4.43359H147.793ZM159.697 1.86523V4.43359H161.562V6.19141H159.697V12.0898C159.697 12.4935 159.775 12.7865 159.932 12.9688C160.094 13.1445 160.381 13.2324 160.791 13.2324C161.064 13.2324 161.341 13.1999 161.621 13.1348V14.9707C161.081 15.1204 160.56 15.1953 160.059 15.1953C158.236 15.1953 157.324 14.1895 157.324 12.1777V6.19141H155.586V4.43359H157.324V1.86523H159.697Z" fill="#494747"/>
</svg>
